{"title":"Whitechapel S01","uid":10082814,"size":1081706148,"categoryP":"video","categoryS":"tv_shows","magnet":"?xt=urn:btih:f8a14668c8379aec8a6af0e5c584e582649a596d&amp;dn=Whitechapel+S01&amp;tr=udp%3A%2F%2Ftracker.openbittorrent.com%3A80&amp;tr=udp%3A%2F%2Fopen.demonii.com%3A1337&amp;tr=udp%3A%2F%2Ftracker.coppersurfer.tk%3A6969&amp;tr=udp%3A%2F%2Fexodus.desync.com%3A6969","seeders":3,"leechers":1,"uploader":"RedBaron58","files":3,"time":1399041502,"description":"Whitechapel series 1 DVDRip x264 mp4 \n\n &lt;a href=&quot;\nhttp://www.imdb.com/title/tt1186356/&quot; rel=&quot;nofollow&quot; target=&quot;_NEW&quot;&gt;\nhttp://www.imdb.com/title/tt1186356/&lt;/a&gt;\n\n\nPlease be patient My upload speed is limited, but I am online most the time and during the night.\nThank you for your kind comments and thumbs ups on my other torrents, your feedback is welcome.\n\n\nAbout the Series:\nA series of bloody, tragic and impossible crimes would suggest someone is carrying out copycat \nJack the Ripper murders. \nThe murders are investigated by our three unlikely heroes: Chandler, a fast-tracked, media savvy DI \non his first big murder case; Miles, nearing retirement, a front-line, hard-bitten DS, and \nBuchan, the eccentrically brilliant Jack the Ripper tour guide\n\n\nI hope you enjoy.\n\n\nTechnical: (All Episodes encoded to same settings)\n\nGeneral\nComplete name                            : G:Whitechapel S01Whitechapel S01E01 x264 RB58.mp4\nFormat                                   : MPEG-4\nFormat profile                           : Base Media / Version 2\nCodec ID                                 : mp42\nFile size                                : 347 MiB\nDuration                                 : 45mn 52s\nOverall bit rate mode                    : Variable\nOverall bit rate                         : 1 058 Kbps\nEncoded date                             : UTC 2014-05-01 16:27:02\nTagged date                              : UTC 2014-05-01 16:38:11\nWriting application                      : HandBrake 0.9.8 2012071700\n\nVideo\nID                                       : 1\nFormat                                   : AVC\nFormat/Info                              : Advanced Video Codec\nFormat profile                           : &lt;a class=&quot;__cf_email__&quot; href=&quot;/cdn-cgi/l/email-protection&quot; data-cfemail=&quot;c68ba7afa8868af5e8f6&quot;&gt;[email&amp;#160;protected]&lt;/a&gt;&lt;script cf-hash='f9e31' type=&quot;text/javascript&quot;&gt;\n/* &lt;![CDATA[ */!function(){try{var t=&quot;currentScript&quot;in document?document.currentScript:function(){for(var t=document.getElementsByTagName(&quot;script&quot;),e=t.length;e--;)if(t[e].getAttribute(&quot;cf-hash&quot;))return t[e]}();if(t&amp;&amp;t.previousSibling){var e,r,n,i,c=t.previousSibling,a=c.getAttribute(&quot;data-cfemail&quot;);if(a){for(e=&quot;&quot;,r=parseInt(a.substr(0,2),16),n=2;a.length-n;n+=2)i=parseInt(a.substr(n,2),16)^r,e+=String.fromCharCode(i);e=document.createTextNode(e),c.parentNode.replaceChild(e,c)}}}catch(u){}}();/* ]]&gt; */&lt;/script&gt;\nFormat settings, CABAC                   : Yes\nFormat settings, ReFrames                : 4 frames\nCodec ID                                 : avc1\nCodec ID/Info                            : Advanced Video Coding\nDuration                                 : 45mn 52s\nBit rate mode                            : Variable\nBit rate                                 : 900 Kbps\nWidth                                    : 720 pixels\nHeight                                   : 576 pixels\nDisplay aspect ratio                     : 16:9\nFrame rate mode                          : Constant\nFrame rate                               : 25.000 fps\nStandard                                 : PAL\nColor space                              : YUV\nChroma subsampling                       : 4:2:0\nBit depth                                : 8 bits\nScan type                                : Progressive\nBits/(Pixel*Frame)                       : 0.087\nStream size                              : 295 MiB (85%)\nWriting library                          : x264 core 120\nEncoding settings                        : cabac=1 / ref=1 / deblock=1:0:0\nEncoded date                             : UTC 2014-05-01 16:27:02\nTagged date                              : UTC 2014-05-01 16:38:11\nColor primaries                          : BT.601 NTSC\nTransfer characteristics                 : BT.709\nMatrix coefficients                      : BT.601\n\nAudio\nID                                       : 2\nFormat                                   : MPEG Audio\nFormat version                           : Version 1\nFormat profile                           : Layer 3\nCodec ID                                 : 69\nDuration                                 : 45mn 52s\nBit rate mode                            : Variable\nBit rate                                 : 155 Kbps\nMaximum bit rate                         : 190 Kbps\nChannel(s)                               : 2 channels\nSampling rate                            : 48.0 KHz\nCompression mode                         : Lossy\nDelay relative to video                  : 80ms\nStream size                              : 50.7 MiB (15%)\nLanguage                                 : English\nEncoded date                             : UTC 2014-05-01 16:27:02\nTagged date                              : UTC 2014-05-01 16:38:10","torrent":{"xt":"urn:btih:f8a14668c8379aec8a6af0e5c584e582649a596d","amp;dn":"Whitechapel+S01","amp;tr":["udp%3A%2F%2Ftracker.openbittorrent.com%3A80","udp%3A%2F%2Fopen.demonii.com%3A1337","udp%3A%2F%2Ftracker.coppersurfer.tk%3A6969","udp%3A%2F%2Fexodus.desync.com%3A6969"],"infoHash":"f8a14668c8379aec8a6af0e5c584e582649a596d","infoHashBuffer":{"type":"Buffer","data":[248,161,70,104,200,55,154,236,138,106,240,229,197,132,229,130,100,154,89,109]},"announce":[],"urlList":[]}}